<mxfile host="app.diagrams.net" modified="2023-11-12T16:53:47.012Z" agent="Mozilla/5.0 (Macintosh; Intel Mac OS X 10_15_7) AppleWebKit/537.36 (KHTML, like Gecko) Chrome/119.0.0.0 Safari/537.36" version="22.1.0" etag="SQC3hfHNl9PYiIHEppNc" type="github">
  <diagram name="Page-1" id="rOYyjA4oaiykKyYbtUBN">
    <mxGraphModel>
      <root>
        <mxCell id="0" />
        <mxCell id="1" parent="0" />
      </root>
    </mxGraphModel>
  </diagram>
</mxfile>
